HIERARCHY
ROOT hip
{
	OFFSET 0.000000 0.000000 0.000000 
	CHANNELS 6 Xposition Yposition Zposition Xrotation Zrotation Yrotation
	JOINT abdomen
	{
		OFFSET 0.000000 3.402643 0.000000 
		CHANNELS 3 Xrotation Zrotation Yrotation
		JOINT chest
		{
			OFFSET 0.000000 8.438565 -0.680529 
			CHANNELS 3 Xrotation Zrotation Yrotation
			JOINT neck
			{
				OFFSET 0.000000 10.207942 -0.272212 
				CHANNELS 3 Xrotation Zrotation Yrotation
				JOINT head
				{
					OFFSET 0.000000 3.130431 0.000000 
					CHANNELS 3 Xrotation Zrotation Yrotation
					End Site
					{
						OFFSET 0.000000 3.130435 0.000000 
					}
				}
			}
			JOINT lCollar
			{
				OFFSET 3.470700 6.669187 -0.816635 
				CHANNELS 3 Yrotation Zrotation Xrotation
				JOINT lShldr
				{
					OFFSET 3.198488 0.000000 0.000000 
					CHANNELS 3 Zrotation Yrotation Xrotation
					JOINT lForeArm
					{
						OFFSET 10.139888 0.000000 0.000000 
						CHANNELS 3 Yrotation Zrotation Xrotation
						JOINT lHand
						{
							OFFSET 8.370511 0.000000 0.000000 
							CHANNELS 3 Zrotation Yrotation Xrotation
							End Site
							{
								OFFSET 4.083176 0.000000 0.000000 
							}
						}
					}
				}
			}
			JOINT rCollar
			{
				OFFSET -3.470700 6.669187 -0.816635 
				CHANNELS 3 Yrotation Zrotation Xrotation
				JOINT rShldr
				{
					OFFSET -3.198488 0.000000 0.000000 
					CHANNELS 3 Zrotation Yrotation Xrotation
					JOINT rForeArm
					{
						OFFSET -10.139888 0.000000 0.000000 
						CHANNELS 3 Yrotation Zrotation Xrotation
						JOINT rHand
						{
							OFFSET -8.370511 0.000000 0.000000 
							CHANNELS 3 Zrotation Yrotation Xrotation
							End Site
							{
								OFFSET -4.083176 0.000000 0.000000 
							}
						}
					}
				}
			}
		}
	}
	JOINT lThigh
	{
		OFFSET 5.308129 -1.633274 1.361059 
		CHANNELS 3 Xrotation Zrotation Yrotation
		JOINT lShin
		{
			OFFSET -2.041588 -20.007561 0.000000 
			CHANNELS 3 Xrotation Zrotation Yrotation
			JOINT lFoot
			{
				OFFSET 0.000000 -19.190928 -1.224953 
				CHANNELS 3 Xrotation Yrotation Zrotation
				End Site
				{
					OFFSET 0.000000 -2.449906 4.627600 
				}
			}
		}
	}
	JOINT rThigh
	{
		OFFSET -5.308129 -1.633274 1.361059 
		CHANNELS 3 Xrotation Zrotation Yrotation
		JOINT rShin
		{
			OFFSET 2.041588 -20.007561 0.000000 
			CHANNELS 3 Xrotation Zrotation Yrotation
			JOINT rFoot
			{
				OFFSET 0.000000 -19.190928 -1.224953 
				CHANNELS 3 Xrotation Yrotation Zrotation
				End Site
				{
					OFFSET 0.000000 -2.449906 4.627600 
				}
			}
		}
	}
}
MOTION
Frames: 11
Frame Time: 0.016667
0.424808 53.152798 2.172004 -9.624748 1.148096 8.908166 24.045965 0.896033 -2.105551 4.239136 1.521942 -3.828785 -3.568862 3.142164 -0.317376 10.671577 -1.718253 1.377505 -17.358999 -13.568078 -0.710808 -63.567444 11.868626 -25.120161 -28.108122 -5.000000 23.246990 -17.443785 6.067022 10.165310 15.713992 19.728338 -1.072362 60.032745 -6.772887 -19.804983 24.787897 5.000000 17.258385 8.844699 -27.177412 1.379841 16.501162 17.341957 11.218359 5.836657 -4.754736 -0.660954 -6.885719 5.235886 -9.197550 21.672855 -12.662821 -3.297588 -1.549768 4.073844 -0.031010 -5.486384 -21.746510 8.629709 
0.422695 53.154896 2.154736 -9.647150 1.138660 8.839820 24.085623 0.894476 -2.105237 4.259357 1.512197 -3.789727 -3.578630 3.240182 -0.322337 10.626863 -1.776723 1.514155 -17.398312 -13.587581 -0.711814 -63.563873 11.975854 -25.288486 -28.159889 -5.000000 23.404259 -17.564526 6.116780 10.143672 15.685277 19.757595 -1.073879 60.004169 -6.820748 -19.894426 24.601980 5.000000 17.233406 8.821317 -27.205898 1.543265 16.532125 17.314350 11.224587 5.822492 -4.741412 -0.650005 -6.878502 5.315657 -9.172862 21.629362 -12.694515 -3.222840 -1.500092 4.082905 0.001593 -5.245676 -21.711918 8.715244 
0.421609 53.156242 2.139338 -9.671019 1.119568 8.771278 24.104826 0.929768 -2.090618 4.268866 1.512186 -3.799489 -3.578905 3.288460 -0.329637 10.640466 -1.835176 1.651108 -17.437502 -13.597333 -0.712316 -63.603249 12.066656 -25.454071 -28.159069 -5.000000 23.520857 -17.719631 6.229151 10.191590 15.675706 19.767349 -1.074384 59.970009 -6.881714 -19.999256 24.414368 5.000000 17.233776 8.771881 -27.284916 1.674878 16.540316 17.333139 11.259972 5.840459 -4.750039 -0.661594 -6.874739 5.334450 -9.186436 21.583508 -12.691271 -3.161373 -1.471584 4.082551 -0.006003 -5.035814 -21.666065 8.804882 
0.421701 53.156689 2.125964 -9.678267 1.081160 8.702743 24.113409 0.971046 -2.064258 4.277765 1.531698 -3.828783 -3.578905 3.288460 -0.329637 10.713310 -1.874098 1.777990 -17.457155 -13.607084 -0.712819 -63.674671 12.131843 -25.610907 -28.084040 -5.000000 23.622231 -17.897860 6.406086 10.319726 15.685082 19.747849 -1.073374 59.930367 -6.955865 -20.120586 24.218487 5.000000 17.279055 8.702728 -27.396856 1.782480 16.542072 17.343832 11.312102 5.864286 -4.751679 -0.663185 -6.864031 5.338458 -9.195415 21.525204 -12.690779 -3.118604 -1.444221 4.081010 -0.033092 -4.881689 -21.587080 8.876937 
0.421899 53.157318 2.113816 -9.693721 1.052392 8.634394 24.122194 1.007076 -2.050311 4.276806 1.541430 -3.868100 -3.569196 3.298116 -0.331098 10.776542 -1.913016 1.895431 -17.486578 -13.616838 -0.713322 -63.748348 12.201050 -25.774364 -28.003830 -5.000000 23.722839 -18.070930 6.605095 10.449649 15.694851 19.747849 -1.073372 59.889175 -7.025401 -20.233498 24.016304 5.000000 17.304670 8.644448 -27.499386 1.887435 16.550039 17.362392 11.367494 5.901207 -4.752022 -0.685808 -6.916922 5.414742 -9.170551 21.492329 -12.684845 -3.054236 -1.423880 4.066539 -0.060501 -4.758262 -21.544079 8.946179 
0.421508 53.158760 2.102709 -9.697711 1.033242 8.575632 24.121601 1.026223 -2.043100 4.286486 1.531651 -3.887625 -3.539672 3.357511 -0.330219 10.783683 -1.942241 1.944229 -17.515875 -13.616837 -0.713323 -63.781528 12.287226 -25.910385 -27.872787 -5.000000 23.795654 -18.217089 6.878857 10.596172 15.665940 19.767355 -1.074385 59.839069 -7.079364 -20.298742 23.782612 5.000000 17.249100 8.577547 -27.556755 2.023099 16.557560 17.341444 11.414114 5.920663 -4.743911 -0.667590 -6.933035 5.435390 -9.193658 21.458796 -12.682751 -3.043131 -1.403699 4.064434 -0.019948 -4.721199 -21.547522 8.930085 
0.421441 53.160366 2.092947 -9.708533 1.033401 8.517047 24.130775 1.045415 -2.036080 4.286335 1.512093 -3.907142 -3.510772 3.425100 -0.340440 10.771241 -1.971463 1.993360 -17.545298 -13.626589 -0.713826 -63.817444 12.368855 -26.057211 -27.732521 -5.000000 23.873312 -18.347511 7.172772 10.746241 15.637421 19.806360 -1.076406 59.787350 -7.120176 -20.360535 23.540819 5.000000 17.185368 8.511189 -27.594795 2.162406 16.556894 17.340782 11.474121 5.949321 -4.723522 -0.669230 -6.950522 5.405929 -9.227785 21.430487 -12.711919 -3.049330 -1.383173 4.073265 0.039804 -4.660259 -21.486788 8.933674 
0.423290 53.161045 2.084527 -9.730559 1.023899 8.458464 24.130314 1.058851 -2.041443 4.286077 1.512081 -3.926670 -3.481123 3.465183 -0.336642 10.807937 -1.981151 2.051918 -17.574720 -13.636339 -0.714328 -63.853565 12.450392 -26.206182 -27.569262 -5.000000 23.935961 -18.494669 7.518367 10.906632 15.614502 19.808992 -1.064249 59.750202 -7.189145 -20.438463 23.319221 5.000000 17.126577 8.419806 -27.607830 2.341892 16.569105 17.342402 11.514992 5.981683 -4.714617 -0.651741 -6.973900 5.347089 -9.253239 21.419138 -12.711142 -3.038961 -1.374458 4.066505 0.060249 -4.662663 -21.457251 8.914666 
0.427104 53.160774 2.077407 -9.752563 1.014393 8.399879 24.149384 1.080869 -2.043129 4.276382 1.521860 -3.926677 -3.442174 3.484495 -0.339562 10.874293 -1.971307 2.120238 -17.594503 -13.655844 -0.715333 -63.889439 12.540602 -26.350924 -27.381271 -5.000000 23.983318 -18.630547 7.901225 11.083758 15.594778 19.799240 -1.063745 59.735271 -7.261119 -20.535305 23.094566 5.000000 17.067755 8.324295 -27.602819 2.538112 16.616611 17.312185 11.582935 5.987548 -4.692104 -0.622508 -7.015504 5.336658 -9.214683 21.415266 -12.734468 -2.983574 -1.374420 4.075312 0.011169 -4.681826 -21.413692 8.930474 
0.430924 53.161003 2.071978 -9.774549 1.004884 8.341290 24.158813 1.097125 -2.057377 4.275755 1.541383 -3.936445 -3.412878 3.484495 -0.339562 10.940300 -1.971218 2.188556 -17.614288 -13.675347 -0.716339 -63.934456 12.626372 -26.495752 -27.195148 -5.000000 24.035685 -18.774408 8.289564 11.235446 15.584627 19.779741 -1.062737 59.704029 -7.336499 -20.644028 22.880684 5.000000 17.015371 8.228377 -27.607090 2.732557 16.623959 17.291103 11.639541 6.034599 -4.663290 -0.624580 -7.025815 5.335464 -9.215092 21.399321 -12.759815 -2.950794 -1.365309 4.078062 0.002041 -4.692458 -21.346560 8.937101 
0.434081 53.162624 2.068700 -9.796345 0.995345 8.292301 24.148630 1.111973 -2.072142 4.284460 1.570662 -3.926682 -3.393289 3.474839 -0.338102 10.967580 -1.971140 2.247115 -17.614538 -13.694853 -0.717345 -63.973804 12.703111 -26.657719 -26.989061 -5.000000 24.141014 -18.877108 8.667052 11.267335 15.564905 19.769987 -1.062232 59.683929 -7.421878 -20.757238 22.715412 5.000000 16.962990 8.163649 -27.663744 2.921545 16.666018 17.292814 11.682997 6.038585 -4.674456 -0.616000 -7.041286 5.307704 -9.194852 21.412821 -12.772437 -2.883815 -1.366032 4.097504 -0.027830 -4.678723 -21.321407 8.948971 
